<svg width="24" height="24" viewBox="0 0 24 24" fill="none" xmlns="http://www.w3.org/2000/svg">
<path d="M11.9999 2C13.9512 2 15.456 3.43834 15.456 5.12109V6.58594H17.496C18.2997 6.58595 18.9291 7.09982 19.0742 7.73535L19.0966 7.86426L19.0976 7.87012L20.4775 18.2705V18.2715C20.7132 20.2132 19.0455 21.9998 16.7802 22H7.21967C4.95439 21.9998 3.28668 20.2132 3.5224 18.2715L3.52142 18.2705L4.90228 7.87012L4.90326 7.86426C4.98745 7.17075 5.64644 6.58595 6.50385 6.58594H8.54388V5.12109C8.54388 3.43834 10.0487 2 11.9999 2ZM6.50385 7.03418C6.01905 7.03419 5.551 7.37255 5.48431 7.89844L4.10345 18.3057L4.10248 18.3115C3.88721 20.0869 5.39868 21.5515 7.21967 21.5518H16.7802C18.5445 21.5515 20.0177 20.1768 19.912 18.4766L19.8974 18.3115L19.8964 18.3057L18.5156 7.89844C18.4489 7.37255 17.9808 7.03419 17.496 7.03418H15.456V9.94824C15.456 10.0312 15.3682 10.1727 15.165 10.1729C14.9616 10.1729 14.874 10.0313 14.874 9.94824V7.03418H9.12592V9.94824C9.12592 10.0313 9.03832 10.1729 8.8349 10.1729C8.63167 10.1727 8.54388 10.0312 8.54388 9.94824V7.03418H6.50385ZM9.62592 15.2754H14.374C14.5771 15.2756 14.665 15.417 14.665 15.5C14.665 15.583 14.5771 15.7244 14.374 15.7246H9.62592C9.42281 15.7244 9.3349 15.583 9.3349 15.5C9.3349 15.417 9.42281 15.2756 9.62592 15.2754ZM11.9999 2.44824C10.4555 2.44824 9.12592 3.6044 9.12592 5.12109V6.58594H14.874V5.12109C14.874 3.6044 13.5444 2.44824 11.9999 2.44824Z" stroke="#2579D1"/>
</svg>
