<svg width="24" height="24" viewBox="0 0 24 24" fill="none" xmlns="http://www.w3.org/2000/svg">
<mask id="path-1-inside-1_32_35" fill="white">
<path d="M7.65816 11.0068C9.04594 13.3198 10.9819 15.2557 13.2949 16.6435C13.3006 16.647 13.3006 16.6547 13.2949 16.6582C10.9819 18.0459 9.04594 19.9819 7.65816 22.2949C7.6547 22.3006 7.64696 22.3006 7.64352 22.2949C6.25574 19.9819 4.31975 18.0459 2.0068 16.6582C2.00121 16.6547 2.00118 16.647 2.0068 16.6435C4.31976 15.2557 6.25574 13.3198 7.64352 11.0068C7.64696 11.0011 7.65468 11.0012 7.65816 11.0068ZM17.999 14.0029C18.9803 15.6384 20.3498 17.0069 21.9853 17.9882C21.9893 17.9906 21.989 17.9964 21.9853 17.999C20.3498 18.9803 18.9803 20.3498 17.999 21.9853C17.9964 21.989 17.9906 21.9892 17.9882 21.9853C17.0069 20.3498 15.6384 18.9803 14.0029 17.999C13.9991 17.9964 13.9989 17.9906 14.0029 17.9882C15.6383 17.007 17.007 15.6383 17.9882 14.0029C17.9906 13.9989 17.9964 13.9991 17.999 14.0029ZM16.6582 2.0068C18.0459 4.31975 19.9819 6.25574 22.2949 7.64352C22.3006 7.64697 22.3006 7.65472 22.2949 7.65817C19.9819 9.04595 18.0459 10.9819 16.6582 13.2949C16.6547 13.3006 16.647 13.3006 16.6435 13.2949C15.2557 10.9819 13.3198 9.04594 11.0068 7.65817C11.0012 7.65469 11.0012 7.64698 11.0068 7.64352C13.3198 6.25574 15.2557 4.31977 16.6435 2.0068C16.647 2.00113 16.6547 2.00119 16.6582 2.0068ZM5.99898 2.00289C6.98029 3.6384 8.34981 5.00694 9.98531 5.98825C9.98926 5.99061 9.98902 5.99643 9.98531 5.99899C8.3498 6.9803 6.98029 8.3498 5.99898 9.98532C5.99641 9.98898 5.9906 9.98925 5.98824 9.98532C5.00693 8.34981 3.6384 6.9803 2.00289 5.99899C1.99914 5.99644 1.99893 5.99062 2.00289 5.98825C3.63834 5.00696 5.00695 3.63834 5.98824 2.00289C5.99062 1.99893 5.99644 1.99914 5.99898 2.00289Z"/>
</mask>
<path d="M7.65816 11.0068L8.9444 10.2351L8.93849 10.2252L8.93243 10.2154L7.65816 11.0068ZM13.2949 16.6435L12.5231 17.9298L12.5231 17.9298L13.2949 16.6435ZM13.2949 16.6582L12.5231 15.3719L12.5231 15.3719L13.2949 16.6582ZM7.65816 22.2949L8.93946 23.0749L8.9444 23.0666L7.65816 22.2949ZM7.64352 22.2949L8.92976 21.5231L8.92975 21.5231L7.64352 22.2949ZM2.0068 16.6582L1.21342 17.9312L1.22418 17.9379L1.23505 17.9444L2.0068 16.6582ZM2.0068 16.6435L1.23505 15.3573L1.2277 15.3617L1.22039 15.3662L2.0068 16.6435ZM7.64352 11.0068L6.361 10.2289L6.35728 10.2351L7.64352 11.0068ZM17.999 14.0029L19.2852 13.2312L19.2639 13.1957L19.2407 13.1614L17.999 14.0029ZM21.9853 17.9882L21.2136 19.2745L21.2136 19.2745L21.9853 17.9882ZM21.9853 17.999L22.7571 19.2852L22.7986 19.2603L22.8385 19.2327L21.9853 17.999ZM17.999 21.9853L19.2266 22.8473L19.2575 22.8032L19.2852 22.7571L17.999 21.9853ZM17.9882 21.9853L19.2745 21.2136L19.2745 21.2136L17.9882 21.9853ZM14.0029 17.999L13.1597 19.2396L13.1948 19.2634L13.2311 19.2852L14.0029 17.999ZM14.0029 17.9882L14.7746 19.2745L14.7746 19.2745L14.0029 17.9882ZM17.9882 14.0029L19.2745 14.7747L19.2745 14.7746L17.9882 14.0029ZM16.6582 2.0068L17.9444 1.23506L17.9385 1.22521L17.9324 1.21545L16.6582 2.0068ZM22.2949 7.64352L21.5231 8.92976L21.5231 8.92976L22.2949 7.64352ZM22.2949 7.65817L21.5231 6.37193L21.5231 6.37193L22.2949 7.65817ZM16.6582 13.2949L17.9395 14.0749L17.9444 14.0666L16.6582 13.2949ZM16.6435 13.2949L17.9298 12.5231L17.9298 12.5231L16.6435 13.2949ZM11.0068 7.65817L10.2134 8.93117L10.2242 8.93788L10.2351 8.94441L11.0068 7.65817ZM11.0068 7.64352L10.2351 6.35728L10.2277 6.36169L10.2204 6.36619L11.0068 7.64352ZM16.6435 2.0068L15.361 1.22886L15.3573 1.23506L16.6435 2.0068ZM5.99898 2.00289L7.28522 1.23115L7.26393 1.19566L7.24071 1.1614L5.99898 2.00289ZM9.98531 5.98825L9.21357 7.27448L9.21357 7.27449L9.98531 5.98825ZM9.98531 5.99899L10.7571 7.28523L10.7986 7.26029L10.8385 7.23271L9.98531 5.99899ZM5.99898 9.98532L7.22661 10.8473L7.25753 10.8032L7.28522 10.7571L5.99898 9.98532ZM5.98824 9.98532L7.27448 9.21357L7.27448 9.21357L5.98824 9.98532ZM2.00289 5.99899L1.15971 7.23957L1.19478 7.26341L1.23115 7.28523L2.00289 5.99899ZM2.00289 5.98825L2.77463 7.27449L2.77464 7.27448L2.00289 5.98825ZM5.98824 2.00289L7.27447 2.77465L7.27448 2.77464L5.98824 2.00289ZM7.65816 11.0068L6.37192 11.7785C7.88637 14.3026 9.99907 16.4153 12.5231 17.9298L13.2949 16.6435L14.0666 15.3573C11.9648 14.0962 10.2055 12.3369 8.9444 10.2351L7.65816 11.0068ZM13.2949 16.6435L12.5231 17.9298C11.5579 17.3506 11.5579 15.9511 12.5231 15.3719L13.2949 16.6582L14.0666 17.9444C15.0434 17.3584 15.0434 15.9433 14.0666 15.3573L13.2949 16.6435ZM13.2949 16.6582L12.5231 15.3719C9.99905 16.8864 7.88638 18.9991 6.37192 21.5231L7.65816 22.2949L8.9444 23.0666C10.2055 20.9648 11.9648 19.2055 14.0666 17.9444L13.2949 16.6582ZM7.65816 22.2949L6.37689 21.5149C6.9505 20.5726 8.34335 20.5458 8.92976 21.5231L7.64352 22.2949L6.35728 23.0666C6.95056 24.0554 8.3589 24.0285 8.93944 23.0748L7.65816 22.2949ZM7.64352 22.2949L8.92975 21.5231C7.4153 18.9991 5.30262 16.8864 2.77854 15.3719L2.0068 16.6582L1.23505 17.9444C3.33688 19.2055 5.09617 20.9648 6.35728 23.0666L7.64352 22.2949ZM2.0068 16.6582L2.80018 15.3852C3.72677 15.9626 3.74903 17.3324 2.7932 17.9208L2.0068 16.6435L1.22039 15.3662C0.253336 15.9616 0.27566 17.3467 1.21342 17.9312L2.0068 16.6582ZM2.0068 16.6435L2.77854 17.9298C5.30263 16.4153 7.4153 14.3026 8.92976 11.7785L7.64352 11.0068L6.35728 10.2351C5.09617 12.3369 3.3369 14.0962 1.23505 15.3573L2.0068 16.6435ZM7.64352 11.0068L8.92602 11.7847C8.33372 12.7612 6.95515 12.718 6.3839 11.7982L7.65816 11.0068L8.93243 10.2154C8.35421 9.28437 6.96019 9.24106 6.36101 10.2289L7.64352 11.0068ZM17.999 14.0029L16.7127 14.7746C17.8209 16.6216 19.3673 18.1667 21.2136 19.2745L21.9853 17.9882L22.7571 16.702C21.3324 15.8472 20.1397 14.6552 19.2852 13.2312L17.999 14.0029ZM21.9853 17.9882L21.2136 19.2745C20.6974 18.9648 20.4817 18.4309 20.4883 17.972C20.4947 17.5293 20.7033 17.0618 21.1321 16.7653L21.9853 17.999L22.8385 19.2327C23.595 18.7096 23.8412 17.3525 22.7571 16.702L21.9853 17.9882ZM21.9853 17.999L21.2136 16.7127C19.3669 17.8207 17.8207 19.3669 16.7127 21.2136L17.999 21.9853L19.2852 22.7571C20.1399 21.3327 21.3327 20.1399 22.7571 19.2852L21.9853 17.999ZM17.999 21.9853L16.7714 21.1234C17.0684 20.7003 17.5318 20.4953 17.9697 20.4884C18.425 20.4811 18.9623 20.6933 19.2745 21.2136L17.9882 21.9853L16.702 22.7571C17.3589 23.8519 18.7113 23.5812 19.2266 22.8473L17.999 21.9853ZM17.9882 21.9853L19.2745 21.2136C18.1667 19.3673 16.6216 17.8209 14.7746 16.7127L14.0029 17.999L13.2311 19.2852C14.6552 20.1397 15.8472 21.3324 16.702 22.7571L17.9882 21.9853ZM14.0029 17.999L14.8461 16.7584C15.621 17.2851 15.8385 18.6362 14.7746 19.2745L14.0029 17.9882L13.2311 16.702C12.1594 17.345 12.3773 18.7078 13.1597 19.2396L14.0029 17.999ZM14.0029 17.9882L14.7746 19.2745C16.6212 18.1665 18.1665 16.6212 19.2745 14.7747L17.9882 14.0029L16.702 13.2311C15.8474 14.6555 14.6555 15.8474 13.2311 16.702L14.0029 17.9882ZM17.9882 14.0029L19.2745 14.7746C18.6375 15.8363 17.2854 15.6237 16.7573 14.8444L17.999 14.0029L19.2407 13.1614C18.7075 12.3746 17.3438 12.1615 16.702 13.2312L17.9882 14.0029ZM16.6582 2.0068L15.3719 2.77854C16.8864 5.30262 18.9991 7.41531 21.5231 8.92976L22.2949 7.64352L23.0666 6.35728C20.9648 5.09618 19.2055 3.33688 17.9444 1.23506L16.6582 2.0068ZM22.2949 7.64352L21.5231 8.92976C20.5579 8.3506 20.5579 6.95108 21.5231 6.37193L22.2949 7.65817L23.0666 8.94441C24.0434 8.35835 24.0434 6.94334 23.0666 6.35728L22.2949 7.64352ZM22.2949 7.65817L21.5231 6.37193C18.999 7.88638 16.8864 9.99905 15.3719 12.5231L16.6582 13.2949L17.9444 14.0666C19.2055 11.9648 20.9648 10.2055 23.0666 8.94441L22.2949 7.65817ZM16.6582 13.2949L15.3769 12.5149C15.9505 11.5726 17.3433 11.5458 17.9298 12.5231L16.6435 13.2949L15.3573 14.0666C15.9506 15.0554 17.3589 15.0285 17.9394 14.0748L16.6582 13.2949ZM16.6435 13.2949L17.9298 12.5231C16.4153 9.99907 14.3026 7.88638 11.7785 6.37193L11.0068 7.65817L10.2351 8.94441C12.3369 10.2055 14.0962 11.9648 15.3573 14.0666L16.6435 13.2949ZM11.0068 7.65817L11.8002 6.38516C12.7268 6.96264 12.749 8.33238 11.7932 8.92085L11.0068 7.64352L10.2204 6.36619C9.25334 6.96157 9.27566 8.34673 10.2134 8.93117L11.0068 7.65817ZM11.0068 7.64352L11.7785 8.92976C14.3026 7.4153 16.4153 5.30264 17.9298 2.77854L16.6435 2.0068L15.3573 1.23506C14.0962 3.3369 12.3369 5.09617 10.2351 6.35728L11.0068 7.64352ZM16.6435 2.0068L17.926 2.78474C17.3337 3.7612 15.9551 3.71801 15.3839 2.79816L16.6582 2.0068L17.9324 1.21545C17.3542 0.284368 15.9602 0.241058 15.361 1.22887L16.6435 2.0068ZM5.99898 2.00289L4.71275 2.77464C5.82092 4.6216 7.36726 6.1667 9.21357 7.27448L9.98531 5.98825L10.7571 4.70201C9.33235 3.84718 8.13966 2.65521 7.28522 1.23115L5.99898 2.00289ZM9.98531 5.98825L9.21357 7.27449C8.69738 6.96477 8.48173 6.4309 8.48834 5.97196C8.49471 5.52927 8.70334 5.06179 9.13213 4.76526L9.98531 5.99899L10.8385 7.23271C11.595 6.70958 11.8412 5.35252 10.7571 4.70201L9.98531 5.98825ZM9.98531 5.99899L9.21357 4.71275C7.36693 5.82073 5.82073 7.36693 4.71275 9.21357L5.99898 9.98532L7.28522 10.7571C8.13986 9.33267 9.33266 8.13986 10.7571 7.28523L9.98531 5.99899ZM5.99898 9.98532L4.77136 9.12338C5.06842 8.70028 5.53178 8.49533 5.96966 8.48836C6.42498 8.48111 6.9623 8.69327 7.27448 9.21357L5.98824 9.98532L4.702 10.7571C5.35894 11.8519 6.71128 11.5812 7.22661 10.8473L5.99898 9.98532ZM5.98824 9.98532L7.27448 9.21357C6.16669 7.36726 4.62159 5.82092 2.77463 4.71275L2.00289 5.99899L1.23115 7.28523C2.65521 8.13967 3.84717 9.33235 4.702 10.7571L5.98824 9.98532ZM2.00289 5.99899L2.84607 4.7584C3.621 5.28509 3.83845 6.6362 2.77463 7.27449L2.00289 5.98825L1.23115 4.70201C0.159413 5.34505 0.377288 6.70779 1.15971 7.23957L2.00289 5.99899ZM2.00289 5.98825L2.77464 7.27448C4.62121 6.16652 6.16651 4.62121 7.27447 2.77465L5.98824 2.00289L4.70201 1.23114C3.84739 2.65547 2.65547 3.8474 1.23114 4.70201L2.00289 5.98825ZM5.98824 2.00289L7.27448 2.77464C6.63747 3.83633 5.28538 3.62369 4.75726 2.84439L5.99898 2.00289L7.24071 1.1614C6.7075 0.374582 5.34377 0.16154 4.702 1.23115L5.98824 2.00289Z" fill="#2579D1" mask="url(#path-1-inside-1_32_35)"/>
</svg>
