<svg width="24" height="24" viewBox="0 0 24 24" fill="none" xmlns="http://www.w3.org/2000/svg">
<mask id="path-1-inside-1_32_55" fill="white">
<path d="M11.1209 5.56532C13.2075 3.47872 16.5909 3.47871 18.6776 5.56532C20.178 7.06603 20.5991 9.23701 19.9412 11.1141C20.3884 11.244 20.8104 11.4843 21.1629 11.8368C22.279 12.9529 22.279 14.7627 21.1629 15.8788L17.4578 19.5839C17.2718 19.7696 16.9699 19.7698 16.784 19.5839L14.4988 17.2987L11.7508 20.0477L11.6834 20.1093C11.3571 20.3754 10.8858 20.3752 10.5594 20.1093L10.491 20.0477L3.57502 13.1317L3.56525 13.121C1.54397 11.0997 1.48013 7.86201 3.37482 5.76454L3.56525 5.56532C5.58658 3.54399 8.82423 3.48007 10.9217 5.37489L11.1209 5.56532ZM17.617 6.62587C16.1162 5.12504 13.6823 5.12505 12.1815 6.62587L11.1209 7.68642L10.0604 6.62587C8.55953 5.12505 6.12663 5.12504 4.6258 6.62587C3.12496 8.1267 3.12496 10.5596 4.6258 12.0604H4.62482L4.63459 12.0692L4.63556 12.0712L11.1209 18.5556L13.4383 16.2372L13.0799 15.8788C11.9638 14.7627 11.9638 12.9529 13.0799 11.8368C14.196 10.7211 16.0049 10.721 17.1209 11.8368C17.4631 11.4946 17.8709 11.2582 18.3035 11.1259C19.0633 9.67637 18.8351 7.84427 17.617 6.62587Z"/>
</mask>
<path d="M11.1209 5.56532C13.2075 3.47872 16.5909 3.47871 18.6776 5.56532C20.178 7.06603 20.5991 9.23701 19.9412 11.1141C20.3884 11.244 20.8104 11.4843 21.1629 11.8368C22.279 12.9529 22.279 14.7627 21.1629 15.8788L17.4578 19.5839C17.2718 19.7696 16.9699 19.7698 16.784 19.5839L14.4988 17.2987L11.7508 20.0477L11.6834 20.1093C11.3571 20.3754 10.8858 20.3752 10.5594 20.1093L10.491 20.0477L3.57502 13.1317L3.56525 13.121C1.54397 11.0997 1.48013 7.86201 3.37482 5.76454L3.56525 5.56532C5.58658 3.54399 8.82423 3.48007 10.9217 5.37489L11.1209 5.56532ZM17.617 6.62587C16.1162 5.12504 13.6823 5.12505 12.1815 6.62587L11.1209 7.68642L10.0604 6.62587C8.55953 5.12505 6.12663 5.12504 4.6258 6.62587C3.12496 8.1267 3.12496 10.5596 4.6258 12.0604H4.62482L4.63459 12.0692L4.63556 12.0712L11.1209 18.5556L13.4383 16.2372L13.0799 15.8788C11.9638 14.7627 11.9638 12.9529 13.0799 11.8368C14.196 10.7211 16.0049 10.721 17.1209 11.8368C17.4631 11.4946 17.8709 11.2582 18.3035 11.1259C19.0633 9.67637 18.8351 7.84427 17.617 6.62587Z" fill="white"/>
<path d="M11.1209 5.56532L10.0844 6.64963L11.1446 7.66298L12.1816 6.62599L11.1209 5.56532ZM18.6776 5.56532L19.7383 4.50475L19.7382 4.50466L18.6776 5.56532ZM19.9412 11.1141L18.5256 10.618L18.0017 12.1129L19.523 12.5547L19.9412 11.1141ZM21.1629 11.8368L22.2236 10.7762L22.2236 10.7761L21.1629 11.8368ZM21.1629 15.8788L22.2236 16.9395L22.2236 16.9394L21.1629 15.8788ZM17.4578 19.5839L18.5177 20.6453L18.5185 20.6445L17.4578 19.5839ZM16.784 19.5839L15.7233 20.6445L15.7235 20.6447L16.784 19.5839ZM14.4988 17.2987L15.5595 16.2381L14.4987 15.1772L13.438 16.2382L14.4988 17.2987ZM11.7508 20.0477L12.7622 21.1555L12.7875 21.1324L12.8116 21.1082L11.7508 20.0477ZM11.6834 20.1093L12.6314 21.2717L12.6639 21.2452L12.6948 21.217L11.6834 20.1093ZM10.5594 20.1093L9.55595 21.2242L9.58333 21.2489L9.6119 21.2721L10.5594 20.1093ZM10.491 20.0477L9.43037 21.1084L9.45827 21.1363L9.48759 21.1627L10.491 20.0477ZM3.57502 13.1317L2.46511 14.1407L2.48912 14.1671L2.51436 14.1924L3.57502 13.1317ZM3.56525 13.121L4.67516 12.112L4.65115 12.0856L4.62591 12.0603L3.56525 13.121ZM3.37482 5.76454L2.29051 4.72807L2.2759 4.74336L2.26172 4.75905L3.37482 5.76454ZM3.56525 5.56532L2.50459 4.50466L2.49263 4.51662L2.48094 4.52885L3.56525 5.56532ZM10.9217 5.37489L11.9582 4.29058L11.9429 4.27599L11.9272 4.26183L10.9217 5.37489ZM17.617 6.62587L18.6778 5.56533L18.6777 5.56521L17.617 6.62587ZM12.1815 6.62587L11.1208 5.5652L11.1208 5.56521L12.1815 6.62587ZM11.1209 7.68642L10.0603 8.74708L11.1209 9.80774L12.1816 8.74708L11.1209 7.68642ZM10.0604 6.62587L11.121 5.56521L11.121 5.5652L10.0604 6.62587ZM4.6258 6.62587L3.56514 5.56521L3.56514 5.56521L4.6258 6.62587ZM4.6258 12.0604V13.5604H8.24712L5.68646 10.9998L4.6258 12.0604ZM4.62482 12.0604V10.5604H0.715885L3.62138 13.1754L4.62482 12.0604ZM4.63459 12.0692L5.97623 11.3984L5.84919 11.1443L5.63804 10.9543L4.63459 12.0692ZM4.63556 12.0712L3.29392 12.742L3.40281 12.9598L3.57498 13.1319L4.63556 12.0712ZM11.1209 18.5556L10.0603 19.6163L11.1212 20.677L12.1818 19.616L11.1209 18.5556ZM13.4383 16.2372L14.4992 17.2976L15.5594 16.237L14.499 15.1765L13.4383 16.2372ZM13.0799 15.8788L14.1406 14.8181L14.1406 14.8181L13.0799 15.8788ZM13.0799 11.8368L12.0194 10.776L12.0192 10.7761L13.0799 11.8368ZM17.1209 11.8368L16.0603 12.8975L17.121 13.958L18.1816 12.8975L17.1209 11.8368ZM18.3035 11.1259L18.7424 12.5602L19.3413 12.377L19.6321 11.8223L18.3035 11.1259ZM11.1209 5.56532L12.1816 6.62599C13.6824 5.12516 16.1161 5.12516 17.6169 6.62598L18.6776 5.56532L19.7382 4.50466C17.0658 1.83225 12.7327 1.83228 10.0603 4.50465L11.1209 5.56532ZM18.6776 5.56532L17.6168 6.6259C18.6944 7.70365 19.0001 9.2641 18.5256 10.618L19.9412 11.1141L21.3568 11.6103C22.198 9.20991 21.6617 6.42841 19.7383 4.50475L18.6776 5.56532ZM19.9412 11.1141L19.523 12.5547C19.7355 12.6164 19.9343 12.7295 20.1022 12.8975L21.1629 11.8368L22.2236 10.7761C21.6865 10.2391 21.0413 9.87161 20.3595 9.67365L19.9412 11.1141ZM21.1629 11.8368L20.1022 12.8975C20.6325 13.4277 20.6325 14.2879 20.1022 14.8181L21.1629 15.8788L22.2236 16.9394C23.9254 15.2376 23.9254 12.478 22.2236 10.7762L21.1629 11.8368ZM21.1629 15.8788L20.1022 14.8181L16.3972 18.5232L17.4578 19.5839L18.5185 20.6445L22.2236 16.9395L21.1629 15.8788ZM17.4578 19.5839L16.398 18.5224C16.7969 18.1241 17.4441 18.1227 17.8445 18.5231L16.784 19.5839L15.7235 20.6447C16.4958 21.4168 17.7467 21.4152 18.5177 20.6453L17.4578 19.5839ZM16.784 19.5839L17.8447 18.5232L15.5595 16.2381L14.4988 17.2987L13.4382 18.3594L15.7233 20.6445L16.784 19.5839ZM14.4988 17.2987L13.438 16.2382L10.69 18.9873L11.7508 20.0477L12.8116 21.1082L15.5597 18.3592L14.4988 17.2987ZM11.7508 20.0477L10.7394 18.94L10.672 19.0015L11.6834 20.1093L12.6948 21.217L12.7622 21.1555L11.7508 20.0477ZM11.6834 20.1093L10.7354 18.9468C10.9614 18.7625 11.2821 18.7632 11.5069 18.9464L10.5594 20.1093L9.6119 21.2721C10.4896 21.9872 11.7527 21.9883 12.6314 21.2717L11.6834 20.1093ZM10.5594 20.1093L11.5628 18.9943L11.4945 18.9328L10.491 20.0477L9.48759 21.1627L9.55595 21.2242L10.5594 20.1093ZM10.491 20.0477L11.5517 18.9871L4.63568 12.0711L3.57502 13.1317L2.51436 14.1924L9.43037 21.1084L10.491 20.0477ZM3.57502 13.1317L4.68493 12.1227L4.67516 12.112L3.56525 13.121L2.45534 14.13L2.46511 14.1407L3.57502 13.1317ZM3.56525 13.121L4.62591 12.0603C3.17219 10.6066 3.12617 8.27752 4.48792 6.77003L3.37482 5.76454L2.26172 4.75905C-0.165908 7.4465 -0.0842507 11.5928 2.50459 14.1816L3.56525 13.121ZM3.37482 5.76454L4.45913 6.80101L4.64956 6.60179L3.56525 5.56532L2.48094 4.52885L2.29051 4.72807L3.37482 5.76454ZM3.56525 5.56532L4.62591 6.62598C6.07971 5.17218 8.40873 5.12615 9.91617 6.48796L10.9217 5.37489L11.9272 4.26183C9.23973 1.83398 5.09344 1.91581 2.50459 4.50466L3.56525 5.56532ZM10.9217 5.37489L9.88523 6.4592L10.0844 6.64963L11.1209 5.56532L12.1574 4.48101L11.9582 4.29058L10.9217 5.37489ZM17.617 6.62587L18.6777 5.56521C16.591 3.47859 13.2074 3.47861 11.1208 5.5652L12.1815 6.62587L13.2421 7.68653C14.1572 6.77149 15.6413 6.77149 16.5563 7.68653L17.617 6.62587ZM12.1815 6.62587L11.1208 5.56521L10.0603 6.62575L11.1209 7.68642L12.1816 8.74708L13.2421 7.68653L12.1815 6.62587ZM11.1209 7.68642L12.1816 6.62575L11.121 5.56521L10.0604 6.62587L8.99971 7.68653L10.0603 8.74708L11.1209 7.68642ZM10.0604 6.62587L11.121 5.5652C9.03441 3.47861 5.65176 3.47859 3.56514 5.56521L4.6258 6.62587L5.68646 7.68653C6.6015 6.77149 8.08466 6.77149 8.99972 7.68653L10.0604 6.62587ZM4.6258 6.62587L3.56514 5.56521C1.47852 7.65183 1.47852 11.0345 3.56514 13.1211L4.6258 12.0604L5.68646 10.9998C4.77141 10.0847 4.77141 8.60158 5.68646 7.68653L4.6258 6.62587ZM4.6258 12.0604V10.5604H4.62482V12.0604V13.5604H4.6258V12.0604ZM4.62482 12.0604L3.62138 13.1754L3.63114 13.1842L4.63459 12.0692L5.63804 10.9543L5.62827 10.9455L4.62482 12.0604ZM4.63459 12.0692L3.29295 12.74L3.29392 12.742L4.63556 12.0712L5.97721 11.4004L5.97623 11.3984L4.63459 12.0692ZM4.63556 12.0712L3.57498 13.1319L10.0603 19.6163L11.1209 18.5556L12.1815 17.4948L5.69615 11.0104L4.63556 12.0712ZM11.1209 18.5556L12.1818 19.616L14.4992 17.2976L13.4383 16.2372L12.3774 15.1768L10.06 17.4951L11.1209 18.5556ZM13.4383 16.2372L14.499 15.1765L14.1406 14.8181L13.0799 15.8788L12.0192 16.9395L12.3776 17.2979L13.4383 16.2372ZM13.0799 15.8788L14.1406 14.8181C13.6103 14.2878 13.6103 13.4278 14.1406 12.8975L13.0799 11.8368L12.0192 10.7761C10.3174 12.478 10.3174 15.2376 12.0192 16.9395L13.0799 15.8788ZM13.0799 11.8368L14.1404 12.8976C14.6708 12.3674 15.5302 12.3675 16.0603 12.8975L17.1209 11.8368L18.1815 10.7761C16.4797 9.07449 13.7211 9.07474 12.0194 10.776L13.0799 11.8368ZM17.1209 11.8368L18.1816 12.8975C18.3445 12.7345 18.5367 12.6232 18.7424 12.5602L18.3035 11.1259L17.8647 9.6915C17.2052 9.89327 16.5817 10.2547 16.0603 10.7761L17.1209 11.8368ZM18.3035 11.1259L19.6321 11.8223C20.6875 9.80879 20.3734 7.26135 18.6778 5.56533L17.617 6.62587L16.5562 7.68641C17.2968 8.42718 17.4391 9.54396 16.975 10.4295L18.3035 11.1259Z" fill="#2579D1" mask="url(#path-1-inside-1_32_55)"/>
</svg>
