<svg width="24" height="24" viewBox="0 0 24 24" fill="none" xmlns="http://www.w3.org/2000/svg">
<path d="M20 14.25C20.4142 14.25 20.75 14.5858 20.75 15V18C20.75 20.6234 18.6234 22.75 16 22.75H7C4.37665 22.75 2.25 20.6234 2.25 18V15C2.25 14.5858 2.58579 14.25 3 14.25C3.41421 14.25 3.75 14.5858 3.75 15V18C3.75 19.7949 5.20507 21.25 7 21.25H16C17.7949 21.25 19.25 19.7949 19.25 18V15C19.25 14.5858 19.5858 14.25 20 14.25ZM13.25 15.5C13.6642 15.5 14 15.8358 14 16.25C14 16.6642 13.6642 17 13.25 17H9.75C9.33579 17 9 16.6642 9 16.25C9 15.8358 9.33579 15.5 9.75 15.5H13.25ZM17 2C19.2091 2 21 3.79086 21 6V10C21 11.1046 20.1046 12 19 12H17.5C16.6716 12 16 11.3284 16 10.5V10C16 9.44772 15.5523 9 15 9C14.4477 9 14 9.44772 14 10V10.333C14 11.2535 13.2535 12 12.333 12H10.667C9.74652 12 9 11.2535 9 10.333V10C9 9.44772 8.55228 9 8 9C7.44772 9 7 9.44772 7 10V10.5C7 11.3284 6.32843 12 5.5 12H4C2.89543 12 2 11.1046 2 10V6C2 3.79086 3.79086 2 6 2H17Z" fill="#686C6F"/>
</svg>
