<svg width="24" height="24" viewBox="0 0 24 24" fill="none" xmlns="http://www.w3.org/2000/svg">
<path d="M16.669 3.15345C16.8626 3.26337 17.0561 3.37329 17.2555 3.48654C19.4469 4.8376 20.9968 6.76745 21.718 9.27163C22.2372 11.6783 22.0907 14.5312 20.8465 16.669C20.7366 16.8626 20.6267 17.0561 20.5135 17.2555C19.1624 19.4469 17.2325 20.9968 14.7284 21.718C12.3217 22.2372 9.46876 22.0907 7.33099 20.8465C7.13744 20.7366 6.9439 20.6267 6.74448 20.5135C4.55309 19.1624 3.00316 17.2325 2.28197 14.7284C1.7628 12.3217 1.90931 9.46876 3.15345 7.33099C3.26337 7.13744 3.37329 6.9439 3.48654 6.74448C4.8376 4.55309 6.76745 3.00316 9.27163 2.28197C11.6783 1.7628 14.5312 1.90931 16.669 3.15345ZM10.3413 3.89067C10.0467 3.95909 10.0467 3.95909 9.74613 4.02889C9.59788 4.06437 9.44963 4.09985 9.29689 4.1364C8.65952 6.36977 9.03362 8.46518 10.0341 10.5256C11.4692 12.7626 14.0275 13.7588 16.5212 14.3518C17.222 14.4675 17.879 14.4813 18.5888 14.4727C18.8286 14.4705 19.0684 14.4683 19.3155 14.466C19.4964 14.4632 19.6772 14.4603 19.8636 14.4574C20.5652 12.2288 20.3816 10.3049 19.4412 8.16227C18.4246 6.27166 16.8934 5.01477 14.9488 4.1364C13.3824 3.66893 11.9457 3.51315 10.3413 3.89067ZM6.02647 6.16662C4.41857 7.81908 3.66315 9.84293 3.63821 12.1229C3.78971 14.6091 4.72747 16.7263 6.59378 18.3892C8.65584 19.9487 10.7772 20.5947 13.3496 20.2399C15.3769 19.8104 16.995 18.9549 18.3892 17.4062C18.6445 17.0026 18.8927 16.5941 19.1264 16.1775C18.6987 16.1191 18.6987 16.1191 18.2625 16.0595C14.9586 15.5785 11.6456 14.8991 9.36696 12.2467C7.8672 10.1896 7.48779 7.85763 7.33099 5.36509C6.79503 5.36509 6.41258 5.83633 6.02647 6.16662Z" fill="#686B6F"/>
</svg>
