<svg width="24" height="24" viewBox="0 0 24 24" fill="none" xmlns="http://www.w3.org/2000/svg">
<path d="M11.5713 1.75H12.4287C16.2011 1.75022 19.0176 5.15815 18.3789 8.81738L18.3066 9.17188C18.2519 9.40456 18.2679 9.64743 18.3506 9.87012L18.3896 9.96484L19.9697 13.3223C20.1541 13.7141 20.25 14.1421 20.25 14.5752C20.25 15.7604 19.551 16.7382 18.5107 16.9941C16.9988 17.366 14.7669 17.75 12 17.75C9.57897 17.75 7.56767 17.4564 6.08984 17.1338L5.48926 16.9941C4.44901 16.7382 3.75 15.7604 3.75 14.5752C3.75002 14.1962 3.82293 13.8211 3.96484 13.4707L4.03027 13.3223L5.61035 9.96484C5.72669 9.71762 5.75594 9.43785 5.69336 9.17188C4.80156 5.38139 7.67735 1.75023 11.5713 1.75Z" stroke="#2579D1" stroke-width="1.5"/>
<path d="M14.5 21C14.4001 21.156 14.2369 21.3228 13.9972 21.4777C13.758 21.6324 13.4583 21.7647 13.1108 21.8578C12.7639 21.9507 12.3858 22 12 22C11.6142 22 11.2361 21.9507 10.8892 21.8578C10.5417 21.7647 10.242 21.6324 10.0028 21.4777C9.76312 21.3228 9.59994 21.156 9.5 21" stroke="#2579D1" stroke-width="1.5" stroke-linecap="round"/>
</svg>
