<svg width="24" height="24" viewBox="0 0 24 24" fill="none" xmlns="http://www.w3.org/2000/svg">
<mask id="path-1-inside-1_32_60" fill="white">
<path d="M15.9997 4.75853C15.9997 6.11209 17.4652 6.95797 18.6376 6.28141V6.28141C19.4788 5.79595 20.5545 6.08407 21.0402 6.92516L22.2812 9.07433C22.767 9.91555 22.4786 10.9913 21.6372 11.4767V11.4767C20.4647 12.1533 20.4646 13.8456 21.6368 14.5227V14.5227C22.4779 15.0085 22.7662 16.0842 22.2805 16.9253L21.0391 19.075C20.5535 19.9159 19.4782 20.204 18.6372 19.7184V19.7184C17.4651 19.0415 15.9997 19.8877 15.9997 21.2413V21.2413C15.9997 22.2125 15.2124 23 14.2412 23H11.7582C10.787 23 9.99972 22.2125 9.99972 21.2413V21.2413C9.99972 19.8877 8.53438 19.0415 7.36221 19.7184V19.7184C6.52128 20.204 5.44591 19.9159 4.96032 19.075L3.71895 16.9252C3.23325 16.0841 3.52159 15.0083 4.36262 14.5225V14.5225C5.53453 13.8455 5.53479 12.1534 4.36263 11.4768V11.4768C3.52151 10.9913 3.23331 9.91578 3.71897 9.07473L4.96039 6.92487C5.44597 6.08396 6.52126 5.79584 7.36225 6.28128V6.28128C8.53451 6.95795 9.99972 6.11194 9.99972 4.7584V4.7584C9.99972 3.78726 10.787 3 11.7581 3H14.2412C15.2124 3 15.9997 3.78732 15.9997 4.75853V4.75853Z"/>
</mask>
<path d="M4.96039 6.92487L3.66141 6.17478L4.96039 6.92487ZM3.71897 9.07473L2.41998 8.32464L3.71897 9.07473ZM4.96032 19.075L3.66133 19.8251L4.96032 19.075ZM21.0391 19.075L22.3381 19.8251L21.0391 19.075ZM22.2812 9.07433L20.9822 9.82443L22.2812 9.07433ZM21.0402 6.92516L19.7412 7.67525L21.0402 6.92516ZM21.0402 6.92516L19.7412 7.67525L20.9822 9.82443L22.2812 9.07433L23.5802 8.32424L22.3392 6.17506L21.0402 6.92516ZM22.2805 16.9253L20.9815 16.1752L19.7401 18.3249L21.0391 19.075L22.3381 19.8251L23.5795 17.6754L22.2805 16.9253ZM14.2412 23V21.5H11.7582V23V24.5H14.2412V23ZM4.96032 19.075L6.2593 18.3249L5.01794 16.1752L3.71895 16.9252L2.41997 17.6753L3.66133 19.8251L4.96032 19.075ZM3.71897 9.07473L5.01796 9.82482L6.25938 7.67496L4.96039 6.92487L3.66141 6.17478L2.41998 8.32464L3.71897 9.07473ZM11.7581 3V4.5H14.2412V3V1.5H11.7581V3ZM14.2412 3V4.5C14.384 4.5 14.4997 4.61575 14.4997 4.75853H15.9997H17.4997C17.4997 2.95889 16.0408 1.5 14.2412 1.5V3ZM9.99972 4.7584H11.4997C11.4997 4.61569 11.6154 4.5 11.7581 4.5V3V1.5C9.95856 1.5 8.49972 2.95883 8.49972 4.7584H9.99972ZM7.36225 6.28128L6.61236 7.58039C8.7846 8.83427 11.4997 7.26661 11.4997 4.7584H9.99972H8.49972C8.49972 4.95727 8.28442 5.08163 8.11213 4.98217L7.36225 6.28128ZM4.96039 6.92487L6.25938 7.67496C6.33073 7.5514 6.48876 7.50904 6.61236 7.58039L7.36225 6.28128L8.11213 4.98217C6.55376 4.08264 4.56121 4.61653 3.66141 6.17478L4.96039 6.92487ZM4.36263 11.4768L5.11252 10.1777C4.98895 10.1064 4.94661 9.94838 5.01796 9.82482L3.71897 9.07473L2.41998 8.32464C1.52001 9.88318 2.05407 11.8762 3.61275 12.7759L4.36263 11.4768ZM4.36262 14.5225L5.11296 15.8213C7.28381 14.5672 7.28544 11.432 5.11252 10.1777L4.36263 11.4768L3.61275 12.7759C3.78414 12.8749 3.78525 13.1237 3.61227 13.2236L4.36262 14.5225ZM3.71895 16.9252L5.01794 16.1752C4.94665 16.0517 4.98881 15.893 5.11296 15.8213L4.36262 14.5225L3.61227 13.2236C2.05437 14.1236 1.51986 16.1165 2.41997 17.6753L3.71895 16.9252ZM7.36221 19.7184L6.6121 18.4194C6.48858 18.4907 6.33063 18.4484 6.2593 18.3249L4.96032 19.075L3.66133 19.8251C4.56119 21.3834 6.55398 21.9172 8.11232 21.0174L7.36221 19.7184ZM9.99972 21.2413H11.4997C11.4997 18.7334 8.78464 17.1648 6.6121 18.4194L7.36221 19.7184L8.11232 21.0174C8.28411 20.9182 8.49972 21.042 8.49972 21.2413H9.99972ZM11.7582 23V21.5C11.6157 21.5 11.4997 21.3843 11.4997 21.2413H9.99972H8.49972C8.49972 23.0407 9.95842 24.5 11.7582 24.5V23ZM15.9997 21.2413H14.4997C14.4997 21.3843 14.3838 21.5 14.2412 21.5V23V24.5C16.041 24.5 17.4997 23.0407 17.4997 21.2413H15.9997ZM18.6372 19.7184L19.3873 18.4194C17.2148 17.1648 14.4997 18.7334 14.4997 21.2413H15.9997H17.4997C17.4997 21.042 17.7153 20.9182 17.8871 21.0174L18.6372 19.7184ZM21.0391 19.075L19.7401 18.3249C19.6688 18.4484 19.5109 18.4907 19.3873 18.4194L18.6372 19.7184L17.8871 21.0174C19.4455 21.9172 21.4383 21.3834 22.3381 19.8251L21.0391 19.075ZM21.6368 14.5227L20.8866 15.8216C21.0106 15.8932 21.0528 16.0516 20.9815 16.1752L22.2805 16.9253L23.5795 17.6754C24.4795 16.1167 23.9452 14.1237 22.3871 13.2238L21.6368 14.5227ZM21.6372 11.4767L20.8876 10.1775C18.7143 11.4314 18.7149 14.5673 20.8866 15.8216L21.6368 14.5227L22.3871 13.2238C22.2143 13.124 22.215 12.8751 22.3868 12.776L21.6372 11.4767ZM22.2812 9.07433L20.9822 9.82443C21.0536 9.94805 21.0112 10.1061 20.8876 10.1775L21.6372 11.4767L22.3868 12.776C23.946 11.8764 24.4803 9.88305 23.5802 8.32424L22.2812 9.07433ZM18.6376 6.28141L19.3873 7.58059C19.5114 7.50899 19.6699 7.55167 19.7412 7.67525L21.0402 6.92516L22.3392 6.17506C21.4392 4.61646 19.4462 4.0829 17.8878 4.98223L18.6376 6.28141ZM18.6376 6.28141L17.8878 4.98223C17.7149 5.08201 17.4997 4.95688 17.4997 4.75853H15.9997H14.4997C14.4997 7.2673 17.2155 8.83392 19.3873 7.58059L18.6376 6.28141Z" fill="#2579D1" mask="url(#path-1-inside-1_32_60)"/>
<circle cx="13" cy="13" r="2.25" stroke="#2579D1" stroke-width="1.5"/>
</svg>
