<svg width="24" height="25" viewBox="0 0 24 25" fill="none" xmlns="http://www.w3.org/2000/svg">
<mask id="path-1-inside-1_1_64" fill="white">
<path fill-rule="evenodd" clip-rule="evenodd" d="M16 5.25833C16 4.28723 15.2128 3.5 14.2417 3.5H11.7584C10.7872 3.5 10 4.28723 10 5.25834C10 6.61191 8.53473 7.45789 7.3625 6.7811C6.5215 6.29555 5.44612 6.5837 4.96056 7.4247L3.7189 9.57533C3.23335 10.4163 3.52149 11.4917 4.36249 11.9772C5.53471 12.654 5.53471 14.346 4.36249 15.0228C3.5215 15.5083 3.23335 16.5837 3.7189 17.4247L4.96057 19.5753C5.44612 20.4163 6.5215 20.7045 7.3625 20.2189C8.53472 19.5421 10 20.3881 10 21.7417C10 22.7128 10.7872 23.5 11.7583 23.5H14.2417C15.2128 23.5 16 22.7128 16 21.7417C16 20.3881 17.4653 19.5421 18.6375 20.2189C19.4785 20.7045 20.5539 20.4163 21.0394 19.5753L22.2811 17.4247C22.7667 16.5837 22.4785 15.5083 21.6375 15.0228C20.4653 14.346 20.4653 12.654 21.6375 11.9772C22.4785 11.4917 22.7667 10.4163 22.2811 9.5753L21.0395 7.42468C20.5539 6.58368 19.4785 6.29554 18.6375 6.78109C17.4653 7.45787 16 6.6119 16 5.25833Z"/>
</mask>
<path d="M22.2811 9.5753L20.9821 10.3253L22.2811 9.5753ZM11.7584 5H14.2417V2H11.7584V5ZM5.01793 10.3253L6.2596 8.1747L3.66153 6.6747L2.41986 8.82533L5.01793 10.3253ZM6.25961 18.8253L5.01794 16.6747L2.41986 18.1747L3.66153 20.3253L6.25961 18.8253ZM14.2417 22H11.7583V25H14.2417V22ZM20.9821 16.6747L19.7404 18.8253L22.3385 20.3253L23.5801 18.1747L20.9821 16.6747ZM19.7404 8.17468L20.9821 10.3253L23.5802 8.8253L22.3385 6.67468L19.7404 8.17468ZM17.8875 5.48205C17.7153 5.58149 17.5 5.45719 17.5 5.25833H14.5C14.5 7.76661 17.2153 9.33425 19.3875 8.08013L17.8875 5.48205ZM22.3385 6.67468C21.4387 5.11624 19.446 4.58229 17.8875 5.48205L19.3875 8.08013C19.5111 8.00879 19.6691 8.05113 19.7404 8.17468L22.3385 6.67468ZM22.3875 13.2763C23.946 12.3765 24.4799 10.3837 23.5802 8.8253L20.9821 10.3253C21.0534 10.4489 21.0111 10.6069 20.8875 10.6782L22.3875 13.2763ZM22.3875 13.7237C22.2153 13.6243 22.2153 13.3757 22.3875 13.2763L20.8875 10.6782C18.7153 11.9323 18.7153 15.0677 20.8875 16.3218L22.3875 13.7237ZM23.5801 18.1747C24.4799 16.6163 23.9459 14.6235 22.3875 13.7237L20.8875 16.3218C21.0111 16.3931 21.0534 16.5511 20.9821 16.6747L23.5801 18.1747ZM17.8875 21.518C19.4459 22.4177 21.4387 21.8838 22.3385 20.3253L19.7404 18.8253C19.6691 18.9489 19.5111 18.9912 19.3875 18.9199L17.8875 21.518ZM17.5 21.7417C17.5 21.5428 17.7153 21.4185 17.8875 21.518L19.3875 18.9199C17.2153 17.6657 14.5 19.2334 14.5 21.7417H17.5ZM14.2417 25C16.0412 25 17.5 23.5412 17.5 21.7417H14.5C14.5 21.8843 14.3843 22 14.2417 22V25ZM8.5 21.7417C8.5 23.5412 9.95881 25 11.7583 25V22C11.6157 22 11.5 21.8843 11.5 21.7417H8.5ZM8.1125 21.5179C8.28472 21.4185 8.5 21.5428 8.5 21.7417H11.5C11.5 19.2334 8.78472 17.6657 6.6125 18.9199L8.1125 21.5179ZM3.66153 20.3253C4.56129 21.8837 6.55406 22.4177 8.1125 21.5179L6.6125 18.9199C6.48894 18.9912 6.33094 18.9489 6.25961 18.8253L3.66153 20.3253ZM3.61249 13.7237C2.05406 14.6235 1.5201 16.6162 2.41986 18.1747L5.01794 16.6747C4.9466 16.5511 4.98893 16.3931 5.11249 16.3218L3.61249 13.7237ZM3.61249 13.2763C3.78471 13.3757 3.78471 13.6243 3.61249 13.7237L5.11249 16.3218C7.28471 15.0677 7.2847 11.9323 5.11249 10.6782L3.61249 13.2763ZM2.41986 8.82533C1.5201 10.3838 2.05406 12.3765 3.61249 13.2763L5.11249 10.6782C4.98893 10.6069 4.9466 10.4489 5.01793 10.3253L2.41986 8.82533ZM8.1125 5.48206C6.55406 4.5823 4.56129 5.11626 3.66153 6.6747L6.2596 8.1747C6.33094 8.05114 6.48894 8.0088 6.6125 8.08014L8.1125 5.48206ZM8.50001 5.25834C8.50001 5.4572 8.28473 5.5815 8.1125 5.48206L6.6125 8.08014C8.78473 9.33427 11.5 7.76661 11.5 5.25834H8.50001ZM14.2417 5C14.3844 5 14.5 5.11566 14.5 5.25833H17.5C17.5 3.4588 16.0412 2 14.2417 2V5ZM11.7584 2C9.95882 2 8.50001 3.45881 8.50001 5.25834H11.5C11.5 5.11566 11.6157 5 11.7584 5V2Z" fill="#686C6F" mask="url(#path-1-inside-1_1_64)"/>
<circle cx="13" cy="13.5" r="2.25" stroke="#686C6F" stroke-width="1.5"/>
</svg>
