<svg width="24" height="24" viewBox="0 0 24 24" fill="none" xmlns="http://www.w3.org/2000/svg">
<mask id="path-1-inside-1_1_44" fill="white">
<path fill-rule="evenodd" clip-rule="evenodd" d="M16 4.75833C16 3.78723 15.2128 3 14.2417 3H11.7584C10.7872 3 10 3.78723 10 4.75834C10 6.11191 8.53473 6.95789 7.3625 6.2811C6.5215 5.79555 5.44612 6.0837 4.96056 6.9247L3.7189 9.07533C3.23335 9.91632 3.52149 10.9917 4.36249 11.4772C5.53471 12.154 5.53471 13.846 4.36249 14.5228C3.5215 15.0083 3.23335 16.0837 3.7189 16.9247L4.96057 19.0753C5.44612 19.9163 6.5215 20.2045 7.3625 19.7189C8.53472 19.0421 10 19.8881 10 21.2417C10 22.2128 10.7872 23 11.7583 23H14.2417C15.2128 23 16 22.2128 16 21.2417C16 19.8881 17.4653 19.0421 18.6375 19.7189C19.4785 20.2045 20.5539 19.9163 21.0394 19.0753L22.2811 16.9247C22.7667 16.0837 22.4785 15.0083 21.6375 14.5228C20.4653 13.846 20.4653 12.154 21.6375 11.4772C22.4785 10.9917 22.7667 9.9163 22.2811 9.0753L21.0395 6.92468C20.5539 6.08368 19.4785 5.79554 18.6375 6.28109C17.4653 6.95787 16 6.1119 16 4.75833Z"/>
</mask>
<path d="M22.2811 9.0753L20.9821 9.8253L22.2811 9.0753ZM11.7584 4.5H14.2417V1.5H11.7584V4.5ZM5.01793 9.82533L6.2596 7.6747L3.66153 6.1747L2.41986 8.32533L5.01793 9.82533ZM6.25961 18.3253L5.01794 16.1747L2.41986 17.6747L3.66153 19.8253L6.25961 18.3253ZM14.2417 21.5H11.7583V24.5H14.2417V21.5ZM20.9821 16.1747L19.7404 18.3253L22.3385 19.8253L23.5801 17.6747L20.9821 16.1747ZM19.7404 7.67468L20.9821 9.8253L23.5802 8.3253L22.3385 6.17468L19.7404 7.67468ZM17.8875 4.98205C17.7153 5.08149 17.5 4.95719 17.5 4.75833H14.5C14.5 7.26661 17.2153 8.83425 19.3875 7.58013L17.8875 4.98205ZM22.3385 6.17468C21.4387 4.61624 19.446 4.08229 17.8875 4.98205L19.3875 7.58013C19.5111 7.50879 19.6691 7.55113 19.7404 7.67468L22.3385 6.17468ZM22.3875 12.7763C23.946 11.8765 24.4799 9.88375 23.5802 8.3253L20.9821 9.8253C21.0534 9.94886 21.0111 10.1069 20.8875 10.1782L22.3875 12.7763ZM22.3875 13.2237C22.2153 13.1243 22.2153 12.8757 22.3875 12.7763L20.8875 10.1782C18.7153 11.4323 18.7153 14.5677 20.8875 15.8218L22.3875 13.2237ZM23.5801 17.6747C24.4799 16.1163 23.9459 14.1235 22.3875 13.2237L20.8875 15.8218C21.0111 15.8931 21.0534 16.0511 20.9821 16.1747L23.5801 17.6747ZM17.8875 21.018C19.4459 21.9177 21.4387 21.3838 22.3385 19.8253L19.7404 18.3253C19.6691 18.4489 19.5111 18.4912 19.3875 18.4199L17.8875 21.018ZM17.5 21.2417C17.5 21.0428 17.7153 20.9185 17.8875 21.018L19.3875 18.4199C17.2153 17.1657 14.5 18.7334 14.5 21.2417H17.5ZM14.2417 24.5C16.0412 24.5 17.5 23.0412 17.5 21.2417H14.5C14.5 21.3843 14.3843 21.5 14.2417 21.5V24.5ZM8.5 21.2417C8.5 23.0412 9.95881 24.5 11.7583 24.5V21.5C11.6157 21.5 11.5 21.3843 11.5 21.2417H8.5ZM8.1125 21.0179C8.28472 20.9185 8.5 21.0428 8.5 21.2417H11.5C11.5 18.7334 8.78472 17.1657 6.6125 18.4199L8.1125 21.0179ZM3.66153 19.8253C4.56129 21.3837 6.55406 21.9177 8.1125 21.0179L6.6125 18.4199C6.48894 18.4912 6.33094 18.4489 6.25961 18.3253L3.66153 19.8253ZM3.61249 13.2237C2.05406 14.1235 1.5201 16.1162 2.41986 17.6747L5.01794 16.1747C4.9466 16.0511 4.98893 15.8931 5.11249 15.8218L3.61249 13.2237ZM3.61249 12.7763C3.78471 12.8757 3.78471 13.1243 3.61249 13.2237L5.11249 15.8218C7.28471 14.5677 7.2847 11.4323 5.11249 10.1782L3.61249 12.7763ZM2.41986 8.32533C1.5201 9.88376 2.05406 11.8765 3.61249 12.7763L5.11249 10.1782C4.98893 10.1069 4.9466 9.94888 5.01793 9.82533L2.41986 8.32533ZM8.1125 4.98206C6.55406 4.0823 4.56129 4.61626 3.66153 6.1747L6.2596 7.6747C6.33094 7.55114 6.48894 7.5088 6.6125 7.58014L8.1125 4.98206ZM8.50001 4.75834C8.50001 4.9572 8.28473 5.0815 8.1125 4.98206L6.6125 7.58014C8.78473 8.83427 11.5 7.26661 11.5 4.75834H8.50001ZM14.2417 4.5C14.3844 4.5 14.5 4.61566 14.5 4.75833H17.5C17.5 2.9588 16.0412 1.5 14.2417 1.5V4.5ZM11.7584 1.5C9.95882 1.5 8.50001 2.95881 8.50001 4.75834H11.5C11.5 4.61566 11.6157 4.5 11.7584 4.5V1.5Z" fill="#131E3F" mask="url(#path-1-inside-1_1_44)"/>
<circle cx="13" cy="13" r="2.25" stroke="#131E3F" stroke-width="1.5"/>
</svg>
