<svg width="24" height="24" viewBox="0 0 24 24" fill="none" xmlns="http://www.w3.org/2000/svg">
<path d="M8.25 20.1843C8.66413 20.1843 8.99986 20.5202 9 20.9343C9 21.3485 8.66421 21.6843 8.25 21.6843H2.75C2.33579 21.6843 2 21.3485 2 20.9343C2.00014 20.5202 2.33587 20.1843 2.75 20.1843H8.25ZM9.09473 3.28196C10.8521 1.5246 13.7016 1.5246 15.459 3.28196L16.8535 4.67552C18.5672 6.38915 18.6085 9.13874 16.9863 10.9021L16.8242 11.0691L16.4121 11.4734L20.3623 15.1394C21.7909 16.4662 21.8024 18.7086 20.4248 20.0525L20.2871 20.1794C18.979 21.3239 17.0169 21.2957 15.7432 20.113L11.5801 16.2478L11.4941 16.3386C9.74974 18.1649 6.84455 18.1984 5.05859 16.4128L3.69336 15.0476C1.93604 13.2903 1.93611 10.4417 3.69336 8.68431L9.09473 3.28196ZM12.6357 15.1804L16.7646 19.0134L16.9014 19.1306C17.6097 19.6736 18.6146 19.6498 19.2988 19.0515L19.4482 18.907C20.1438 18.1511 20.1121 16.9555 19.3408 16.239L15.3408 12.5242L12.6357 15.1804ZM14.3984 4.34251C13.2634 3.20747 11.4452 3.17182 10.2676 4.23606L10.1562 4.34251L4.75391 9.74485L4.64746 9.85618C3.58338 11.0338 3.61893 12.8521 4.75391 13.987L6.11914 15.3523L6.23242 15.4597C7.39102 16.5051 9.16351 16.4845 10.2979 15.4128L10.4102 15.3025L11 14.6843L15.7734 9.99876C16.9263 8.86687 16.9702 7.03481 15.8994 5.84935L15.793 5.73704L14.3984 4.34251Z" fill="#2579D1"/>
</svg>
